<svg xmlns="http://www.w3.org/2000/svg" viewBox="0 0 840 500"><defs/><path fill="#fff" d="M825.9 250l-10.3 6.2c-13.5 8-27 16.1-40.6 24-21.4 12.6-42.8 25.1-64.1 37.8l-53 31.4-35.6 21-53.4 31.6-58 34.2-52.1 30.8-36.7 21.7c-1.5.9-2.7.8-4.1 0l-45.6-27-51.5-30.3-43.8-25.9-53.2-31.4-56.4-33.4-53.7-31.7L70 283l-52.8-31.1-2.9-1.8 10.6-6.4 40.2-23.8 42.8-25.2 53.2-31.5 51.1-30.1 37.4-22.1 37.6-22.2 53.4-31.6 57.8-34.1 19.7-11.7c1.4-.9 2.6-1 4.1-.1l45.4 26.9 51.7 30.5 43.6 25.8 53.7 31.7 57.3 33.9 52.6 31 43.6 25.9 53 31.3c.7.3 1.5.9 2.8 1.7z"/><path d="M837 245.5l-50.6-29.9-56-33.1-53.9-31.8-56.3-33.2-59.5-35.2-57.6-34a8992.6 8992.6 0 01-52.3-31L421.5 0h-3l-6.6 4-59.5 35.1-57.5 34-53 31.3-57.1 33.8-58.9 34.7-58.2 34.4-64.5 38.1c-4.1 2.4-4.1 6.5 0 8.9l50.6 29.9 56 33.1 54.1 32 56 33.1 59.5 35.2 57.6 34 52.3 31 29.2 17.4h3l6.6-4 59.5-35.1 57.5-34 53-31.3 57.1-33.8 58.9-34.7 58.2-34.4 64.5-38.1c4.2-2.5 4.2-6.7.2-9.1zm-21.4 10.7c-13.5 8-27 16.1-40.6 24-21.4 12.6-42.8 25.1-64.1 37.8l-53 31.4-35.6 21-53.4 31.6-58 34.2-52.1 30.8-36.7 21.7c-1.5.9-2.7.8-4.1 0l-45.6-27-51.5-30.3-43.8-25.9-53.2-31.4-56.4-33.4-53.7-31.7L70 283l-52.8-31.1-2.9-1.8 10.6-6.4 40.2-23.8 42.8-25.2 53.2-31.5 51.1-30.1 37.4-22.1 37.6-22.2 53.4-31.6 57.8-34.1 19.7-11.7c1.4-.9 2.6-1 4.1-.1l45.4 26.9 51.7 30.5 43.6 25.8 53.7 31.7 57.3 33.9 52.6 31 43.6 25.9 53 31.3 3 1.9a231 231 0 00-10.5 6zM482 425.4c.5 2.6 0 4.6-2.4 6l-40.2 23.7c-3.1 1.8-5.8 1.2-7.2-1.3-1.4-2.4-.5-4.9 2.5-6.7l33.8-20.1c3.5-2.1 3.6-2 2.8-6.2l-2.7-13.8-22 13-7.8 4.6c-2.7 1.6-5.4 1.1-6.9-1.2-1.5-2.4-.8-5.2 2-6.9 10.1-6 20.2-12.1 30.4-18 2-1.1 2.4-2.2 1.9-4.4-1.2-4.9-2-9.9-3.1-15.2l-5.9 3.4c-5.9 3.5-11.8 7.1-17.8 10.5a8.7 8.7 0 01-4.7 1c-1.9-.1-3.1-1.6-3.4-3.6-.3-2 .3-3.7 2.1-4.7l18.6-11.1c2.5-1.5 5.1-2.9 7.6-4.5.7-.4 1.4-1.6 1.3-2.3-.9-5.4-2-10.7-3.1-16.5l-11.9 6.9-7.2 4.3c-2.7 1.6-5.6 1-7-1.4-1.4-2.4-.5-5 2.2-6.6 6.6-3.9 13.1-7.9 19.8-11.7 1.6-.9 2.1-1.8 1.7-3.6l-3.1-15.8-13.8 8.2c-1.8 1.1-3.9 1.3-5.4-.2-1-1.2-1.9-3.1-1.7-4.6.1-1.3 1.6-2.7 2.8-3.5 4.8-3.1 9.8-5.9 14.7-8.9.6-.4 1.4-1.5 1.3-2.1-1-5.5-2.2-11-3.4-16.9-2.7 1.6-5.1 3.2-7.7 4.5-1.2.6-2.9 1.3-4 .9-1.5-.6-3-1.9-3.6-3.3-.8-1.9 0-3.8 1.9-5 3.1-1.9 6.1-3.8 9.3-5.6 1.7-.9 2.3-1.9 1.8-4-1.2-4.9-1.9-9.9-2.9-15.2l-3.2 1.8c-2.5 1.3-5.2.6-6.6-1.7-1.3-2.1-.7-5.4 1.8-6.3 5.7-2.1 6.4-5.8 4.7-11-1-3.3-1.4-6.7-2.1-10.1-.1-.6-.6-1.4-1.2-1.7-4.8-2.6-5.2-5.6-.9-9.3l-2.6-12.8-.4-.1c-.3 1.2-.7 2.3-.9 3.5l-12.1 65.4-10.7 58.2-13.5 72.5-4.2 23c-.2 1.2-.3 2.8-1.1 3.5-1.2 1-3 1.9-4.5 2-2.1.1-3.5-1.6-3.9-3.7l-3-15.8-3.4-17.8-13.4 7.8-10.8 6.4c-1.9 1.1-4.1 1.2-5.6-.5-1-1.2-1.7-3.3-1.4-4.7.3-1.4 1.9-2.7 3.2-3.5 7.8-4.8 15.7-9.5 23.7-14 2-1.1 2.4-2.3 1.9-4.4-1.1-5-1.9-10.1-2.8-15.5l-23.8 14.2c-2 1.2-3.9 1.5-5.9.1-1.7-1.2-2.3-3.1-1.6-4.9a6.8 6.8 0 012.6-3.2c8.2-5 16.4-9.9 24.7-14.7 1.7-1 2.2-1.8 1.8-3.8-1.1-5-1.9-10.1-2.9-15.6l-11.4 6.7-7.8 4.6c-2.5 1.4-5.3.8-6.6-1.5a4.9 4.9 0 011.7-6.6l20.4-12.1c1.4-.8 1.8-1.6 1.5-3.2l-3.2-15.9-10.6 6.2c-1.2.7-2.3 1.5-3.5 2.1-2.5 1.3-5.1.6-6.4-1.5a4.8 4.8 0 011.7-6.6l15.8-9.4 1.2-.7-3.3-18.2-4 2.2c-1.8 1-3.6 2.2-5.5 3.1a4.4 4.4 0 01-5.9-1.8 4.6 4.6 0 011.5-6.2c3.1-2 6.3-4 9.5-5.7 1.9-1 2.6-2 2-4.3-1-4.1-1.5-8.3-2.3-12.4l-.6-2.6-3.7 2.1c-2.4 1.3-5.1.6-6.4-1.6a4.8 4.8 0 011.6-6.4c1.7-1.1 3.4-2.2 5.2-3.1 1.3-.7 1.5-1.5 1.3-2.8-1-5-1.8-10.1-2.9-15.1-.1-.7-1.2-1.5-1.9-1.7-2-.5-3.3-1.6-3.7-3.7-.4-2.1.1-3.9 2.1-5 1.3-.7 1.6-1.5 1.2-3-1-4.4-1.8-8.8-3-13.2a1341 1341 0 00-4.7 19.2l-16.1 67.8-18.8 79.6a82 82 0 01-1.4 5.3c-.9 3.1-3.1 4.4-5.8 3.7-2.5-.7-3.8-3.1-3.2-6l3.4-14.5 16.7-70.3 26-109.2c.7-2.9 2.5-4.6 4.9-4.5 2.4.1 4.2 1.9 4.7 4.8l10.2 56 14.2 76.2 10 54.5 6.5 34.6c.1.5.4 1 .8 1.9l6.9-37.1 14.1-75.2 10.8-58.7 9.8-52.2c.6-3.2 2.3-4.9 4.8-4.9 2.4 0 4.2 1.7 4.8 4.7l10.2 52.4 10.9 55.3c4.7 24.1 9.3 48.3 14.1 72.4 3.3 19.2 7 37.6 10.7 56.1zm109.6-256.3c.3.5.1 1.3.1 2v190.1c0 3.7-1.4 5.7-4 6-2.9.3-4.8-1.2-5.6-4.9L557 251.6l-2.6-11.6-.5.1v144c0 3.6-1.7 5.6-4.7 5.6a4.5 4.5 0 01-4.6-3.9l-.1-3V198v-2c.1-2.9 1.5-4.6 4-4.9 2.6-.3 4.7 1.1 5.3 3.9l5.8 25.5 12 53 10 44.2.7 1.1v-3.4l.1-144.4c0-1.6.6-3.6 1.7-4.6 1-.9 3.2-1.3 4.5-.9 1.3.4 2.1 2.2 3 3.6zM216.8 160c.3.8.4 1.6.4 2.5l-.1 123c0 9.5-1 19-3.9 28.1a28.5 28.5 0 01-10.1 16.1 12.2 12.2 0 01-13.8.7 24 24 0 01-10.5-12.5 96.5 96.5 0 01-5.7-29.6c-2.2-35.2-.5-70.5-1-105.8 0-2.9 2.2-5.2 4.8-5.1 2.7.1 4.6 2.2 4.6 5.3v55.6c.1 15.2-.1 30.5.8 45.7.5 9.2 2.5 18.5 4.4 27.5a23 23 0 004.9 8.9c2.9 3.5 5.8 3 8.5-.7a39.2 39.2 0 006.2-17.7c.9-5.9 1.3-11.9 1.3-17.8.2-18.6.1-37.2.1-55.8v-64.9l.1-2.8a4.6 4.6 0 014.3-3.9c2.3-.3 3.8 1.1 4.7 3.2zm72.7 153.1c-.4 11.2-1.1 22.4-4.1 33.2a76 76 0 01-5.9 15.2c-6.7 12.3-19.6 12.6-29.3 5.3a37 37 0 01-12-18.8c-4.1-12-6.1-24.5-6.2-37.1-.2-19.7 0-39.4.9-59a157 157 0 017-41.9 46.4 46.4 0 0111.1-19.8c7.2-7 16.6-7.3 24.6-3.9 2.7 1.2 3.7 3.5 2.9 5.9-.9 2.4-3.1 3.5-6 2.9-.6-.1-1.1-.4-1.7-.6-7-2.1-12.3-.1-16.3 6-5 7.8-7.2 16.6-8.9 25.5a378.1 378.1 0 00-4.5 74.4c.1 14.7 1.2 29.4 5.7 43.6 1.5 4.8 3.5 9.5 7 13.3 1.2 1.3 2.7 2.6 4.3 3.5 5 2.9 9.5 2.2 12.5-2.7 2.5-4.2 4.5-8.9 5.7-13.6 3.8-15.2 4.3-30.8 4-46.3l-.1-1h-13.4c-3.2 0-5.1-1.5-5.3-4.1-.2-2.8 1.5-4.9 4.7-5.1 6.2-.4 12.4-.6 18.7-.7 2.9-.1 4.7 2.1 4.8 5.7-.1 6.4.1 13.3-.2 20.1zM533 394.6c1.3 2.2.6 4.9-2 6.5l-32.1 19c-3 1.7-6.6-.3-6.9-3.7v-2.5-206c0-5.5 1.2-6.7 6.9-6.7h26c3.2 0 5.5 1.9 5.6 4.6.1 2.8-2.1 4.8-5.6 4.8h-23.4v73.5h13.4c1.3 0 2.7-.1 4 .2 2.7.5 4.2 2.4 4 4.9-.2 2.5-2 4.2-4.8 4.2h-16.6v114l2.6-1.4 21.9-13c2.8-1.6 5.5-.9 7 1.6zm105.5-227.1c-1.5 2.5-4.2 3.1-7 1.4l-9.9-5.9v179.4c0 1 .1 2-.1 3-.5 2.6-2.3 4.1-4.7 4a4.7 4.7 0 01-4.6-4.2l-.1-2.8V160.3c0-2.1-.5-3.4-2.4-4.4-3.3-1.7-6.4-3.7-9.5-5.6-2.7-1.6-3.6-4.2-2.3-6.6 1.3-2.5 4.1-3.1 7-1.4l26.7 15.7 4.8 2.8c2.8 1.9 3.5 4.3 2.1 6.7zm-488.1 27.2c-2-.7-3.8 0-5.2 1.6a34 34 0 00-2.7 3.9l-46.4 68.4c-2 2.9-1.8 5.6.7 7.2 2.5 1.6 5.2.9 7.1-1.9 1.9-2.9 3.9-5.7 5.7-8.6.9-1.5 2-2.1 3.9-2.1h30.7V300c0 3.7 2.8 6.1 6 5.3 2.4-.6 3.5-2.4 3.5-5.7v-99.4-1.3c-.2-2-1.3-3.6-3.3-4.2zm-6.4 58.9h-26.3l26.3-38.8v38.8zm187.3-116.5c-.5-16.1-.4-32.1-.6-48.2 0-2.7 2.2-5 4.7-5 2.6 0 4.7 2.1 4.7 5.2 0 10.5-.2 21 .1 31.6.2 7.6.7 15.3 1.6 22.8.5 4.2 2.1 8.3 5.1 11.6 4.9 5.3 12.3 4.4 15.9-1.9a39 39 0 004.3-18.2c.4-22 .5-43.9.7-65.9v-2.5c.2-3.1 2.2-5 5-4.9 2.7.1 4.3 2 4.4 5.1v33.6h.3c-.4 12.4-.5 24.9-1.1 37.3a40.8 40.8 0 01-6.3 21.5 19.1 19.1 0 01-32.2-.5 40 40 0 01-6.6-21.6zm350.9 83.8c0 3.1-1.9 4.7-5.5 4.7H654.9V256h12.4c3.4 0 5.5 1.7 5.5 4.6 0 2.7-2.1 4.8-5.4 4.8h-12.5v51.5l7.8-4.6 10.4-6.2c3-1.7 5.9-1.2 7.3 1.3 1.4 2.4.6 4.9-2.4 6.7-8.3 5.1-16.7 10.1-25.1 15-4 2.4-7.4.3-7.4-4.4v-103c0-3.8 1.5-5.5 5.3-5.5h26.3c3.3.1 5.1 1.7 5.1 4.7zm51.2 55.9c1.4 2.4.5 5.1-2.4 6.8L704.7 299c-4.6 2.7-8.2.5-8.2-4.8v-88.1c0-2.2.5-4.2 2.5-5.4 2.1-1.2 4-.4 5.9.7a1959.7 1959.7 0 0021.8 13.2c2.3 1.6 2.9 4.2 1.5 6.4a4.6 4.6 0 01-6.4 1.5c-3.7-2.1-7.2-4.3-10.8-6.5l-4.8-2.8v29.1h10.5c3.2.1 5.3 2.5 4.8 5.5-.4 2.3-2.2 3.7-4.9 3.8h-10.3V287l20.1-11.7c2.8-1.5 5.6-1 7 1.5zM413 149.5c1.7-2.4 4.4-2.6 7.3-.6 6 4 14.4 2.5 19.1-3.6 6.7-8.7 7-18 2.1-27.4-3.8-7.4-8.4-14.4-12.7-21.5a75.8 75.8 0 01-9.3-19.2 33 33 0 01-.7-16.2 18 18 0 0124.8-13.4c3.2 1.3 6.1 3.4 9 5.5a4.6 4.6 0 01.9 6.5c-1.4 1.9-4.4 2.3-6.6.8l-3-2.3c-3.5-2.4-7.3-3.5-11.2-1.6-4 1.9-4.9 5.8-5.1 9.8-.2 5.1 1 10.1 3.4 14.6 3.9 7 8.3 13.6 12.2 20.6 3.1 5.5 6.3 10.9 8.7 16.8a31.9 31.9 0 01-9.3 37 23.7 23.7 0 01-14.9 5.4c-4.7 0-9-1.4-12.8-4-3-2.3-3.6-4.8-1.9-7.2zm132.2 23.1c.1 2.5-2.2 4.8-5.1 4.8h-24.5c-3.3 0-5.1-1.9-5.1-5.3v-77c0-4.3 3.6-6.5 7.3-4.4 8.4 4.8 16.6 9.8 24.9 14.8 2.5 1.5 3.1 3.9 1.9 6.3-1.3 2.3-3.9 3.2-6.5 1.7-5.4-3-10.6-6.2-15.9-9.3l-2.2-1.1v25.7c3.6 0 7.1-.2 10.6.1 1.6.1 3.6.6 4.4 1.7.9 1.2 1.1 3.3.8 4.8-.3 1.9-2.1 2.7-4.1 2.7h-11.8v29.5h20c2.9.3 5.2 2.5 5.3 5zm-59.1-8.7a20.2 20.2 0 01-22.7.8c-3-2.1-3.7-4.7-2.1-7.1 1.6-2.4 4.3-2.8 7.3-.9a10.6 10.6 0 0014.1-2.3c3.1-3.5 4.8-7.6 4.8-12.9a34 34 0 00-5.7-14.7c-3.8-6.3-7.8-12.6-11.5-18.9a29.8 29.8 0 01-4.2-14.6c-.3-13.3 11.4-19.4 21-18.3 2.6.3 5.2 1.2 7.7 2.2 2.4 1 3.3 3.6 2.4 5.9-.9 2.3-3.6 3.4-6.1 2.6-1.8-.5-3.5-1.2-5.4-1.3-7.9-.5-12.4 5-9.7 12.5 2.1 5.6 5.2 10.9 8.2 16.1 4 6.9 8.8 13.3 11.2 21.1a27 27 0 01-9.3 29.8zm-94.1-9.2c-.3-.7-.1-1.7-.1-2.5V54.8c0-1.1 0-2.2.3-3.2a4.6 4.6 0 014.9-3.5c2.4.2 4.1 2 4.2 4.5v100.9c0 4.3-3.3 6.8-6.7 4.9-1.2-.7-1.9-2.4-2.6-3.7zM285.2 166c1.4-2.3 3.9-2.8 6.6-1.4a11.3 11.3 0 0015.9-4.9c1.6-3 1.8-6.3.1-9.2-2.6-4.5-5.7-8.7-8.5-13.1-2.5-4-5.3-7.8-7.3-12-4.8-10 1.3-19.8 11.9-22.2 4-.9 7.9-.5 11.4 1.8 2.6 1.8 3.4 4.1 2.1 6.4-1.3 2.4-3.8 2.9-6.8 1.8-1.3-.5-2.9-.9-4.4-.8-5.2.4-8 5-5.5 9.6 2.5 4.5 5.5 8.8 8.5 13 3.7 5.2 7.5 10.3 8.7 16.8 1.7 9.7-5 20.2-14.6 22.6-1.9.5-4 .7-5.9 1.1l-.2.5c-3.4-1.1-6.9-2-10.1-3.5-2.7-1.1-3.3-4.1-1.9-6.5zm360.2 26.6c0-3 1.9-4.7 5.3-4.7h5.9v-6.2c0-2.9 2-5 4.5-5 2.5-.1 4.5 1.7 4.7 4.6.2 2.1 0 4.2 0 6.6h5.5c3.7 0 5.8 1.8 5.7 4.9-.1 2.9-2.2 4.6-5.7 4.7h-5.5v5.8c-.1 3.3-2 5.4-4.7 5.4s-4.6-2.3-4.6-5.5v-5.6h-5.8c-3.3-.3-5.3-2.1-5.3-5z"/></svg>